<svg xmlns="http://www.w3.org/2000/svg" width="18" height="18" viewBox="0 0 48 48">
  <path fill="#FFC107" d="M43.6 20.5H42V20H24v8h11.3C33.7 32.1 29.3 36 24 36c-6.6 0-12-5.4-12-12s5.4-12 12-12c3.1 0 5.9 1.2 8 3.1l5.7-5.7C34.6 6.1 29.6 4 24 4 12.9 4 4 12.9 4 24s8.9 20 20 20 20-8.9 20-20c0-1.3-.1-2.2-.4-3.5z"/>
  <path fill="#FF3D00" d="M6.3 14.7l6.6 4.8C14.3 16.2 18.8 12 24 12c3.1 0 5.9 1.2 8 3.1l5.7-5.7C34.6 6.1 29.6 4 24 4 16.1 4 9.2 8.5 6.3 14.7z"/>
  <path fill="#4CAF50" d="M24 44c5.2 0 10.2-2 13.9-5.7l-6.4-5.4C29.4 34.8 26.9 36 24 36c-5.2 0-9.6-3.9-10.9-9.1l-6.6 5.1C9.2 39.5 16.1 44 24 44z"/>
  <path fill="#1976D2" d="M43.6 20.5H42V20H24v8h11.3c-.9 2.8-2.9 5.2-5.4 6.7l6.4 5.4C34.1 41.9 40 38 42.9 32.8c1.1-2.2 1.7-4.9 1.7-7.8 0-1.3-.1-2.2-.4-3.5z"/>
</svg>